<svg xmlns="http://www.w3.org/2000/svg" viewBox="0 0 795.69 880.34"><defs><style>.cls-1{fill:#e52b2b;fill-rule:evenodd;}.cls-2{fill:#fff;}</style></defs><g id="Слой_2" data-name="Слой 2"><g id="Capa_1" data-name="Capa 1"><path class="cls-1" d="M397.84,0C617.57,0,795.69,178.12,795.69,397.85c0,200.13-147.8,365.76-340.18,393.7-18.84,2.73-49.2,88.79-49.2,88.79s-37.49-85.43-51.68-87C155.24,771.83,0,603,0,397.85,0,178.12,178.12,0,397.84,0Z"/><path class="cls-2" d="M590.27,357.55,405.68,192.48a5.64,5.64,0,0,0-1.05-.81,10.92,10.92,0,0,0-14.76-.24L205.28,356.5a10.91,10.91,0,0,0,14.52,16.29L253,343v192.5A27.45,27.45,0,0,0,280.47,563h58.25a25.75,25.75,0,0,0,25.73-25.74V439.35a4,4,0,0,1,4-4h58.81a4,4,0,0,1,3.95,4v97.86A25.76,25.76,0,0,0,456.91,563h58.25c15.33,0,27.43-15.09,27.43-34.37V344.07l33.24,29.77a10.94,10.94,0,0,0,15.4-.89A11.09,11.09,0,0,0,590.27,357.55Zm-69.55,53.81V528.42c0,7.82-3.87,12.58-5.64,12.58H456.83a4,4,0,0,1-4-4v-97.7a25.74,25.74,0,0,0-25.73-25.73H368.32a25.75,25.75,0,0,0-25.73,25.73v97.86a4,4,0,0,1-3.95,4H280.39a5.66,5.66,0,0,1-5.65-5.65v-212L397.21,214.1,520.72,324.55v86.81Z"/></g></g></svg>